<svg xmlns="http://www.w3.org/2000/svg" xmlns:xlink="http://www.w3.org/1999/xlink" width="77" height="77" viewBox="0 0 77 77"><defs><path id="cq5da" d="M1482.311 816.12c17.806 0 32.24 14.433 32.24 32.24 0 17.805-14.434 32.239-32.24 32.239-17.806 0-32.24-14.434-32.24-32.24 0-17.806 14.434-32.24 32.24-32.24z"/><path id="cq5dd" d="M1497.609 857.632c.83.823 1.265 1.801 1.265 2.82 0 1.012-.427 1.999-1.24 2.846-.354.37-.716.723-1.07 1.06-.517.502-1.01.97-1.438 1.489-.008.016-.025.024-.033.04-1.25 1.357-2.844 2.04-4.743 2.04-.165 0-.345-.008-.518-.017-2.82-.18-5.343-1.241-7.234-2.137-4.949-2.393-9.281-5.789-12.882-10.09-2.967-3.568-4.957-6.898-6.288-10.491-.543-1.464-1.25-3.7-1.053-6.101a6.017 6.017 0 0 1 1.784-3.824l2.795-2.82.017-.017c.822-.79 1.792-1.209 2.795-1.209s1.956.42 2.754 1.21c.534.493 1.052 1.019 1.545 1.529.247.263.51.526.764.78l2.245 2.245c1.726 1.727 1.726 3.964 0 5.69-.23.23-.46.469-.69.7-.61.616-1.234 1.257-1.908 1.874.501 1.11 1.192 2.204 2.22 3.503 2.12 2.607 4.332 4.621 6.765 6.167.238.148.518.288.814.436.205.106.42.213.633.328l2.598-2.59c.83-.83 1.8-1.266 2.811-1.266 1.02 0 1.981.444 2.778 1.275zm-1.579 1.554l-4.53-4.53-.016-.017c-.255-.28-.674-.6-1.184-.6-.517 0-.961.337-1.24.617l-2.812 2.812c-.14.14-.567.567-1.25.567-.271 0-.534-.066-.814-.205-.032-.017-.065-.042-.098-.058-.239-.148-.518-.288-.814-.436-.329-.164-.674-.337-1.011-.55-2.639-1.67-5.031-3.849-7.3-6.644l-.008-.009c-1.25-1.586-2.072-2.919-2.655-4.333l-.025-.074c-.148-.469-.28-1.16.427-1.866.009-.017.025-.025.041-.041a42.75 42.75 0 0 0 2.064-2.007c.238-.23.468-.468.707-.707.871-.872.871-1.677 0-2.549l-2.244-2.245c-.263-.271-.527-.534-.781-.797a41.407 41.407 0 0 0-1.48-1.472l-.025-.025c-.263-.263-.682-.575-1.2-.575-.42 0-.847.205-1.25.583l-2.803 2.804a3.775 3.775 0 0 0-1.134 2.442c-.123 1.505.156 3.1.92 5.148 1.242 3.354 3.116 6.479 5.92 9.858 3.394 4.054 7.48 7.253 12.133 9.506 1.702.814 3.97 1.767 6.412 1.924.123.008.255.008.378.008 1.282 0 2.26-.42 3.09-1.308.51-.6 1.053-1.134 1.587-1.644.354-.345.683-.658 1.003-1.003-.008.008-.008 0 0 0 .839-.871.839-1.735-.008-2.574zm-13.564-22.233c.107-.6.674-1.004 1.283-.905a12.679 12.679 0 0 1 6.864 3.56 12.684 12.684 0 0 1 3.56 6.866 1.11 1.11 0 0 1-.913 1.283c-.066.008-.123.016-.19.016a1.103 1.103 0 0 1-1.092-.92 10.483 10.483 0 0 0-2.943-5.674 10.425 10.425 0 0 0-5.673-2.944 1.098 1.098 0 0 1-.896-1.282zm17.847 10.467c-.066.008-.123.016-.189.016a1.103 1.103 0 0 1-1.093-.92c-.65-3.832-2.458-7.327-5.237-10.106-2.778-2.771-6.272-4.588-10.103-5.238a1.116 1.116 0 0 1-.912-1.283c.107-.6.674-1.01 1.274-.904 4.291.732 8.196 2.755 11.303 5.863 3.107 3.108 5.13 7.013 5.861 11.305a1.09 1.09 0 0 1-.904 1.267z"/><mask id="cq5dc" width="2" height="2" x="-1" y="-1"><path fill="#fff" d="M1450 816h65v65h-65z"/><use xlink:href="#cq5da"/></mask><filter id="cq5db" width="101" height="104" x="1432" y="798" filterUnits="userSpaceOnUse"><feOffset dy="3" in="SourceGraphic" result="FeOffset1025Out"/><feGaussianBlur in="FeOffset1025Out" result="FeGaussianBlur1026Out" stdDeviation="3.2 3.2"/></filter></defs><g><g transform="translate(-1444 -813)"><g><g filter="url(#cq5db)"><use fill="none" stroke-opacity=".24" stroke-width="0" mask="url(&quot;#cq5dc&quot;)" xlink:href="#cq5da"/><use fill="#000001" fill-opacity=".24" xlink:href="#cq5da"/></g><use fill="#b88b58" xlink:href="#cq5da"/></g><g><use fill="#fff" xlink:href="#cq5dd"/></g></g></g></svg>